2.5Hzlow3min_grf.mot
version=1
nRows=27
nColumns 19
inDegrees=yes
endheader
time	1_ground_force_vx	1_ground_force_vy	1_ground_force_vz	1_ground_force_px	1_ground_force_py	1_ground_force_pz	1_ground_torque_x	1_ground_torque_y	1_ground_torque_z	2_ground_force_vx	2_ground_force_vy	2_ground_force_vz	2_ground_force_px	2_ground_force_py	2_ground_force_pz	2_ground_torque_x	2_ground_torque_y	2_ground_torque_z
            1.253500	           -9.712757	          858.797599	          -41.554731	           -0.253194	            0.006404	           -0.448357	           -0.020469	            1.809881	           -0.087575	          -18.901165	          868.031937	           50.877557	           -0.242729	            0.005576	           -0.688841	            0.038704	           -1.777452	           -0.104181
            1.254000	          -10.124889	          858.796733	          -41.370283	           -0.253151	            0.006403	           -0.448218	           -0.021002	            1.781388	           -0.085814	          -19.507309	          867.291166	           51.438326	           -0.242761	            0.005575	           -0.688739	            0.038976	           -1.732846	           -0.102774
            1.254500	          -10.629650	          858.977718	          -41.551682	           -0.253110	            0.006403	           -0.448056	           -0.021224	            1.715093	           -0.082965	          -19.928939	          867.289476	           51.485433	           -0.242827	            0.005575	           -0.688717	            0.039576	           -1.722300	           -0.102242
            1.255000	          -11.178888	          859.156335	          -41.182697	           -0.252987	            0.006402	           -0.447909	           -0.020910	            1.607019	           -0.077031	          -20.353704	          868.207045	           51.958179	           -0.242711	            0.005576	           -0.688849	            0.038759	           -1.653319	           -0.098944
            1.255500	          -11.637965	          857.715694	          -41.554590	           -0.252887	            0.006404	           -0.448298	           -0.022211	            1.636930	           -0.079306	          -20.680182	          867.836408	           52.285501	           -0.242755	            0.005575	           -0.688786	            0.040401	           -1.695395	           -0.102144
            1.256000	          -12.461836	          856.812209	          -41.097848	           -0.252752	            0.006404	           -0.448371	           -0.023813	            1.637228	           -0.078531	          -20.822497	          868.386420	           52.803741	           -0.242725	            0.005576	           -0.688943	            0.041005	           -1.710063	           -0.103983
            1.256500	          -12.920493	          856.812514	          -41.188422	           -0.252875	            0.006404	           -0.448269	           -0.026967	            1.788273	           -0.085965	          -20.962363	          868.201666	           52.850072	           -0.242620	            0.005577	           -0.689020	            0.040717	           -1.686390	           -0.102656
            1.257000	          -13.700130	          855.371221	          -41.421947	           -0.252877	            0.006404	           -0.448346	           -0.029247	            1.826053	           -0.088428	          -21.290790	          868.383055	           53.273221	           -0.242511	            0.005577	           -0.688922	            0.040345	           -1.645535	           -0.100950
            1.257500	          -14.157975	          855.910719	          -41.143355	           -0.252871	            0.006403	           -0.448056	           -0.029019	            1.754309	           -0.084329	          -21.475490	          867.645481	           53.364529	           -0.242482	            0.005577	           -0.688844	            0.038607	           -1.559776	           -0.095934
            1.258000	          -14.478679	          854.829124	          -41.147196	           -0.252608	            0.006404	           -0.448257	           -0.028572	            1.686932	           -0.081200	          -21.568258	          867.458887	           53.973977	           -0.242569	            0.005577	           -0.688964	            0.039000	           -1.568554	           -0.097597
            1.258500	          -14.982769	          853.206802	          -41.198761	           -0.252698	            0.006404	           -0.448383	           -0.027803	            1.583245	           -0.076450	          -21.851934	          868.193765	           54.164437	           -0.242520	            0.005577	           -0.689023	            0.038231	           -1.518964	           -0.094764
            1.259000	          -15.624814	          852.666501	          -41.337051	           -0.252590	            0.006404	           -0.448381	           -0.028222	            1.540131	           -0.074665	          -21.943496	          867.639772	           54.491002	           -0.242437	            0.005578	           -0.689060	            0.039025	           -1.543033	           -0.096908
            1.259500	          -16.128874	          852.125441	          -41.292266	           -0.252511	            0.006404	           -0.448263	           -0.030932	            1.634214	           -0.079191	          -22.033769	          866.717833	           54.722397	           -0.242385	            0.005577	           -0.688885	            0.038071	           -1.497550	           -0.094552
            1.260000	          -16.587319	          851.584660	          -41.339300	           -0.252451	            0.006403	           -0.448237	           -0.033860	            1.738348	           -0.084386	          -21.849652	          867.638939	           54.819459	           -0.242461	            0.005578	           -0.689104	            0.037907	           -1.505278	           -0.095107
            1.260500	          -17.135838	          850.320365	          -40.793074	           -0.252393	            0.006404	           -0.448279	           -0.036339	            1.803249	           -0.086509	          -21.986778	          866.716830	           55.050874	           -0.242366	            0.005578	           -0.689017	            0.036606	           -1.443023	           -0.091656
            1.261000	          -17.548652	          849.059243	          -40.980884	           -0.252427	            0.006404	           -0.448463	           -0.034703	            1.679047	           -0.081041	          -22.177356	          867.635746	           55.382736	           -0.242445	            0.005578	           -0.689301	            0.036036	           -1.409828	           -0.089992
            1.261500	          -17.960587	          849.238280	          -40.703952	           -0.252161	            0.006403	           -0.448164	           -0.033770	            1.596767	           -0.076533	          -22.125749	          866.346033	           55.612757	           -0.242377	            0.005577	           -0.688936	            0.034042	           -1.332930	           -0.085564
            1.262000	          -18.511140	          848.518094	          -40.934962	           -0.252190	            0.006404	           -0.448271	           -0.031990	            1.466350	           -0.070741	          -22.173910	          866.713978	           55.661019	           -0.242308	            0.005579	           -0.689301	            0.034025	           -1.329936	           -0.085409
            1.262500	          -18.739282	          847.615118	          -40.571410	           -0.252084	            0.006403	           -0.448062	           -0.034131	            1.543806	           -0.073895	          -22.405437	          865.976067	           55.799275	           -0.242296	            0.005579	           -0.689265	            0.033782	           -1.305679	           -0.084132
            1.263000	          -19.105142	          845.270776	          -40.397125	           -0.252147	            0.006405	           -0.448481	           -0.037697	            1.667835	           -0.079709	          -22.403238	          865.421910	           56.266585	           -0.242344	            0.005578	           -0.689194	            0.034197	           -1.321024	           -0.085888
            1.263500	          -19.655483	          844.009627	          -40.584594	           -0.251933	            0.006405	           -0.448560	           -0.039630	            1.701713	           -0.081828	          -22.168346	          865.238844	           56.218900	           -0.242281	            0.005579	           -0.689251	            0.033916	           -1.323746	           -0.086010
            1.264000	          -20.158891	          843.647561	          -40.263894	           -0.252060	            0.006404	           -0.448314	           -0.038881	            1.627177	           -0.077659	          -22.211103	          864.132872	           56.449618	           -0.242210	            0.005579	           -0.689241	            0.032595	           -1.268119	           -0.082840
            1.264500	          -20.617040	          841.484481	          -40.317891	           -0.252023	            0.006405	           -0.448657	           -0.038637	            1.576962	           -0.075557	          -22.300651	          863.026350	           56.821141	           -0.242138	            0.005579	           -0.689167	            0.031402	           -1.215247	           -0.080011
            1.265000	          -20.845787	          842.024342	          -40.085720	           -0.251853	            0.006404	           -0.448228	           -0.035354	            1.428066	           -0.067985	          -22.308044	          865.052628	           56.640656	           -0.242251	            0.005580	           -0.689485	            0.029897	           -1.159350	           -0.075910
            1.265500	          -21.349518	          840.942000	          -39.951542	           -0.251724	            0.006404	           -0.448225	           -0.035923	            1.414995	           -0.067224	          -22.530271	          861.736626	           56.769713	           -0.242072	            0.005579	           -0.689192	            0.029314	           -1.121205	           -0.073863
            1.266000	          -21.578358	          839.499634	          -39.911297	           -0.251857	            0.006404	           -0.448331	           -0.036252	            1.410358	           -0.067051	          -22.627150	          862.655880	           57.101535	           -0.242080	            0.005580	           -0.689454	            0.030523	           -1.163684	           -0.077027
            1.266500	          -21.899206	          838.598410	          -39.960225	           -0.251700	            0.006404	           -0.448347	           -0.042528	            1.628558	           -0.077603	          -22.856080	          861.181787	           57.096378	           -0.242079	            0.005579	           -0.689143	            0.029572	           -1.114226	           -0.073873
